<svg xmlns="http://www.w3.org/2000/svg" xmlns:xlink="http://www.w3.org/1999/xlink" width="500" zoomAndPan="magnify" viewBox="0 0 375 112.499997" height="150" preserveAspectRatio="xMidYMid meet" version="1.0"><defs><g/><clipPath id="42749333a0"><path d="M 261 16 L 305.464844 16 L 305.464844 58.089844 L 261 58.089844 Z M 261 16 " clip-rule="nonzero"/></clipPath><clipPath id="0d3b5a96e7"><path d="M 283 0.859375 L 294 0.859375 L 294 11 L 283 11 Z M 283 0.859375 " clip-rule="nonzero"/></clipPath></defs><path fill="#ffffff" d="M 275.007812 42.296875 L 267.355469 51.863281 C 266.777344 52.585938 267.292969 53.65625 268.214844 53.65625 L 297.664062 53.65625 C 298.574219 53.65625 299.089844 52.617188 298.542969 51.890625 L 293.714844 45.488281 C 293.40625 45.078125 292.855469 44.9375 292.386719 45.144531 L 291.300781 45.625 C 288.800781 46.734375 285.925781 46.609375 283.53125 45.289062 L 277.289062 41.847656 C 276.519531 41.421875 275.558594 41.613281 275.007812 42.296875 " fill-opacity="1" fill-rule="nonzero"/><g clip-path="url(#42749333a0)"><path fill="#ffffff" d="M 302.609375 54.9375 C 302.273438 55.589844 301.636719 55.976562 300.90625 55.976562 L 265.308594 55.976562 C 264.578125 55.976562 263.941406 55.589844 263.609375 54.9375 C 263.277344 54.28125 263.332031 53.539062 263.746094 52.96875 L 276.632812 36.015625 L 281.441406 36.015625 C 282.070312 36.015625 282.578125 35.507812 282.578125 34.882812 C 282.578125 34.253906 282.070312 33.746094 281.441406 33.746094 L 277.609375 33.746094 C 277.632812 33.5625 277.648438 33.378906 277.648438 33.195312 L 277.648438 32.019531 L 281.441406 32.019531 C 282.070312 32.019531 282.578125 31.511719 282.578125 30.886719 C 282.578125 30.261719 282.070312 29.75 281.441406 29.75 L 277.648438 29.75 L 277.648438 28.027344 L 281.441406 28.027344 C 282.070312 28.027344 282.578125 27.519531 282.578125 26.890625 C 282.578125 26.265625 282.070312 25.757812 281.441406 25.757812 L 277.648438 25.757812 L 277.648438 22.691406 C 277.648438 22.066406 277.140625 21.558594 276.515625 21.558594 L 273.074219 21.558594 L 273.074219 19.136719 L 293.140625 19.136719 L 293.140625 21.558594 L 289.699219 21.558594 C 289.074219 21.558594 288.566406 22.066406 288.566406 22.691406 L 288.566406 33.195312 C 288.566406 34.148438 288.882812 35.09375 289.464844 35.855469 L 302.460938 52.957031 C 302.882812 53.550781 302.9375 54.285156 302.609375 54.9375 Z M 304.289062 51.617188 C 304.285156 51.609375 304.28125 51.601562 304.273438 51.597656 L 291.269531 34.488281 C 290.988281 34.117188 290.835938 33.65625 290.835938 33.195312 L 290.835938 23.828125 L 293.382812 23.828125 C 294.5 23.828125 295.410156 22.917969 295.410156 21.800781 L 295.410156 18.894531 C 295.410156 17.777344 294.5 16.867188 293.382812 16.867188 L 272.832031 16.867188 C 271.714844 16.867188 270.808594 17.777344 270.808594 18.894531 L 270.808594 21.800781 C 270.808594 22.917969 271.714844 23.828125 272.832031 23.828125 L 275.382812 23.828125 L 275.382812 33.195312 C 275.382812 33.65625 275.226562 34.117188 274.945312 34.488281 L 261.925781 51.617188 C 261 52.894531 260.871094 54.5625 261.589844 55.964844 C 262.304688 57.371094 263.730469 58.246094 265.308594 58.246094 L 300.90625 58.246094 C 302.484375 58.246094 303.910156 57.371094 304.628906 55.964844 C 305.347656 54.5625 305.214844 52.894531 304.289062 51.617188 " fill-opacity="1" fill-rule="nonzero"/></g><path fill="#ffffff" d="M 278.316406 11.972656 C 278.316406 10.535156 279.480469 9.371094 280.917969 9.371094 C 282.351562 9.371094 283.515625 10.535156 283.515625 11.972656 C 283.515625 13.40625 282.351562 14.570312 280.917969 14.570312 C 279.480469 14.570312 278.316406 13.40625 278.316406 11.972656 " fill-opacity="1" fill-rule="nonzero"/><g clip-path="url(#0d3b5a96e7)"><path fill="#ffffff" d="M 283.515625 5.613281 C 283.515625 2.988281 285.640625 0.859375 288.265625 0.859375 C 290.890625 0.859375 293.023438 2.988281 293.023438 5.613281 C 293.023438 8.238281 290.890625 10.367188 288.265625 10.367188 C 285.640625 10.367188 283.515625 8.238281 283.515625 5.613281 " fill-opacity="1" fill-rule="nonzero"/></g><g fill="#ffffff" fill-opacity="1"><g transform="translate(227.516784, 87.879733)"><g><path d="M 6.078125 0 C 5.546875 0 5.101562 0 4.75 0 C 4.40625 0 4.109375 -0.0078125 3.859375 -0.03125 C 3.617188 -0.0507812 3.414062 -0.0703125 3.25 -0.09375 C 3.082031 -0.113281 2.929688 -0.140625 2.796875 -0.171875 C 2.148438 -0.328125 1.679688 -0.585938 1.390625 -0.953125 C 1.109375 -1.316406 0.929688 -1.910156 0.859375 -2.734375 C 0.859375 -2.804688 0.851562 -2.882812 0.84375 -2.96875 C 0.832031 -3.0625 0.828125 -3.234375 0.828125 -3.484375 C 0.828125 -3.742188 0.820312 -4.128906 0.8125 -4.640625 C 0.800781 -5.148438 0.785156 -5.875 0.765625 -6.8125 L 0.765625 -12.6875 C 0.765625 -14.425781 0.84375 -15.757812 1 -16.6875 C 1.15625 -17.625 1.421875 -18.289062 1.796875 -18.6875 C 1.972656 -18.863281 2.160156 -19.007812 2.359375 -19.125 C 2.566406 -19.238281 2.832031 -19.328125 3.15625 -19.390625 C 3.476562 -19.460938 3.875 -19.515625 4.34375 -19.546875 C 4.8125 -19.578125 5.390625 -19.59375 6.078125 -19.59375 L 13.453125 -19.59375 L 13.453125 -14.78125 C 13.023438 -14.9375 12.453125 -15.066406 11.734375 -15.171875 C 11.015625 -15.273438 10.316406 -15.328125 9.640625 -15.328125 L 7.78125 -15.328125 C 7.375 -15.328125 7.050781 -15.3125 6.8125 -15.28125 C 6.582031 -15.257812 6.40625 -15.179688 6.28125 -15.046875 C 6.164062 -14.921875 6.09375 -14.738281 6.0625 -14.5 C 6.03125 -14.269531 6.015625 -13.953125 6.015625 -13.546875 L 6.015625 -6.578125 C 6.015625 -6.046875 6.03125 -5.628906 6.0625 -5.328125 C 6.09375 -5.023438 6.148438 -4.789062 6.234375 -4.625 C 6.328125 -4.457031 6.460938 -4.351562 6.640625 -4.3125 C 6.816406 -4.28125 7.050781 -4.265625 7.34375 -4.265625 L 8.203125 -4.265625 L 8.203125 -8.984375 C 8.203125 -9.359375 8.171875 -9.71875 8.109375 -10.0625 C 8.046875 -10.40625 7.9375 -10.78125 7.78125 -11.1875 L 13.453125 -11.1875 L 13.453125 -4.34375 C 13.453125 -3.738281 13.441406 -3.234375 13.421875 -2.828125 C 13.398438 -2.429688 13.359375 -2.097656 13.296875 -1.828125 C 13.242188 -1.566406 13.160156 -1.347656 13.046875 -1.171875 C 12.941406 -0.992188 12.800781 -0.835938 12.625 -0.703125 C 12.445312 -0.546875 12.257812 -0.421875 12.0625 -0.328125 C 11.875 -0.242188 11.625 -0.175781 11.3125 -0.125 C 11 -0.0820312 10.601562 -0.0507812 10.125 -0.03125 C 9.644531 -0.0078125 9.019531 0 8.25 0 Z M 6.078125 0 "/></g></g></g><g fill="#ffffff" fill-opacity="1"><g transform="translate(241.732205, 87.879733)"><g><path d="M 4 0.0625 C 3.15625 0.0625 2.550781 0.0078125 2.1875 -0.09375 C 1.820312 -0.207031 1.535156 -0.421875 1.328125 -0.734375 C 1.148438 -1.003906 1.007812 -1.414062 0.90625 -1.96875 C 0.8125 -2.519531 0.765625 -3.144531 0.765625 -3.84375 L 0.765625 -11.875 C 0.765625 -12.59375 0.804688 -13.140625 0.890625 -13.515625 C 0.984375 -13.890625 1.144531 -14.191406 1.375 -14.421875 C 1.84375 -14.890625 2.507812 -15.125 3.375 -15.125 L 4.375 -15.125 C 4.75 -15.125 5.066406 -15.101562 5.328125 -15.0625 C 5.597656 -15.03125 5.832031 -14.96875 6.03125 -14.875 C 6.238281 -14.789062 6.429688 -14.671875 6.609375 -14.515625 C 6.785156 -14.359375 6.972656 -14.148438 7.171875 -13.890625 L 7.515625 -13.453125 L 7.515625 -15.046875 L 12.1875 -15.046875 L 12.1875 0 L 7.515625 0 L 7.515625 -1.640625 C 7.316406 -1.273438 7.140625 -0.976562 6.984375 -0.75 C 6.828125 -0.519531 6.65625 -0.347656 6.46875 -0.234375 C 6.289062 -0.117188 6.082031 -0.0390625 5.84375 0 C 5.613281 0.0390625 5.3125 0.0625 4.9375 0.0625 Z M 7.515625 -9.921875 C 7.515625 -11.054688 7.164062 -11.625 6.46875 -11.625 C 5.78125 -11.625 5.4375 -11.054688 5.4375 -9.921875 L 5.4375 -5.28125 C 5.4375 -4.144531 5.785156 -3.578125 6.484375 -3.578125 C 7.171875 -3.578125 7.515625 -4.144531 7.515625 -5.28125 Z M 7.515625 -9.921875 "/></g></g></g><g fill="#ffffff" fill-opacity="1"><g transform="translate(254.772798, 87.879733)"><g><path d="M 0.859375 -15.046875 L 5.515625 -15.046875 L 5.515625 -13.421875 C 5.910156 -14.085938 6.34375 -14.53125 6.8125 -14.75 C 7.28125 -14.976562 7.976562 -15.09375 8.90625 -15.09375 C 9.445312 -15.09375 9.914062 -15.0625 10.3125 -15 C 10.71875 -14.945312 11.050781 -14.847656 11.3125 -14.703125 C 11.582031 -14.554688 11.800781 -14.363281 11.96875 -14.125 C 12.132812 -13.894531 12.265625 -13.601562 12.359375 -13.25 C 12.597656 -13.632812 12.816406 -13.945312 13.015625 -14.1875 C 13.210938 -14.4375 13.425781 -14.625 13.65625 -14.75 C 13.894531 -14.882812 14.164062 -14.972656 14.46875 -15.015625 C 14.769531 -15.066406 15.144531 -15.09375 15.59375 -15.09375 C 16.320312 -15.09375 16.914062 -15.046875 17.375 -14.953125 C 17.832031 -14.867188 18.191406 -14.707031 18.453125 -14.46875 C 18.722656 -14.238281 18.910156 -13.914062 19.015625 -13.5 C 19.128906 -13.09375 19.1875 -12.566406 19.1875 -11.921875 L 19.1875 0 L 14.515625 0 L 14.515625 -10.015625 C 14.515625 -11.085938 14.140625 -11.625 13.390625 -11.625 C 12.703125 -11.625 12.359375 -11.066406 12.359375 -9.953125 L 12.359375 0 L 7.703125 0 L 7.703125 -9.921875 C 7.703125 -11.054688 7.328125 -11.625 6.578125 -11.625 C 5.867188 -11.625 5.515625 -11.039062 5.515625 -9.875 L 5.515625 0 L 0.859375 0 Z M 0.859375 -15.046875 "/></g></g></g><g fill="#ffffff" fill-opacity="1"><g transform="translate(274.803623, 87.879733)"><g><path d="M 4.34375 0 C 3.46875 0 2.816406 -0.0390625 2.390625 -0.125 C 1.972656 -0.21875 1.632812 -0.390625 1.375 -0.640625 C 1.238281 -0.785156 1.128906 -0.929688 1.046875 -1.078125 C 0.972656 -1.222656 0.910156 -1.410156 0.859375 -1.640625 C 0.816406 -1.878906 0.789062 -2.1875 0.78125 -2.5625 C 0.769531 -2.945312 0.765625 -3.441406 0.765625 -4.046875 L 0.765625 -12.015625 C 0.765625 -13.109375 1 -13.890625 1.46875 -14.359375 C 1.707031 -14.597656 2.070312 -14.769531 2.5625 -14.875 C 3.050781 -14.988281 3.734375 -15.046875 4.609375 -15.046875 L 8.28125 -15.046875 C 9.851562 -15.046875 10.921875 -14.816406 11.484375 -14.359375 C 11.640625 -14.242188 11.757812 -14.125 11.84375 -14 C 11.9375 -13.882812 12.003906 -13.734375 12.046875 -13.546875 C 12.097656 -13.367188 12.132812 -13.140625 12.15625 -12.859375 C 12.175781 -12.585938 12.1875 -12.238281 12.1875 -11.8125 L 12.1875 -5.640625 L 5.4375 -5.640625 L 5.4375 -4.84375 C 5.4375 -4.332031 5.546875 -3.988281 5.765625 -3.8125 C 5.992188 -3.632812 6.429688 -3.546875 7.078125 -3.546875 L 12.1875 -3.546875 L 12.1875 0 Z M 7.515625 -8.484375 L 7.515625 -9.84375 C 7.515625 -10.351562 7.421875 -10.753906 7.234375 -11.046875 C 7.054688 -11.335938 6.800781 -11.484375 6.46875 -11.484375 C 6.132812 -11.484375 5.878906 -11.335938 5.703125 -11.046875 C 5.523438 -10.753906 5.4375 -10.351562 5.4375 -9.84375 L 5.4375 -8.484375 Z M 7.515625 -8.484375 "/></g></g></g><g fill="#ffffff" fill-opacity="1"><g transform="translate(287.667995, 87.879733)"><g><path d="M 0.9375 -14.625 C 0.9375 -15.800781 0.910156 -16.765625 0.859375 -17.515625 C 0.816406 -18.273438 0.742188 -18.96875 0.640625 -19.59375 L 6.671875 -19.59375 C 6.515625 -18.8125 6.394531 -18.03125 6.3125 -17.25 C 6.238281 -16.476562 6.203125 -15.65625 6.203125 -14.78125 L 6.203125 -4.265625 L 9.71875 -4.46875 L 8.78125 0 L 0.9375 0 Z M 0.9375 -14.625 "/></g></g></g><g fill="#ffffff" fill-opacity="1"><g transform="translate(297.213479, 87.879733)"><g><path d="M 4 0.0625 C 3.15625 0.0625 2.550781 0.0078125 2.1875 -0.09375 C 1.820312 -0.207031 1.535156 -0.421875 1.328125 -0.734375 C 1.148438 -1.003906 1.007812 -1.414062 0.90625 -1.96875 C 0.8125 -2.519531 0.765625 -3.144531 0.765625 -3.84375 L 0.765625 -11.875 C 0.765625 -12.59375 0.804688 -13.140625 0.890625 -13.515625 C 0.984375 -13.890625 1.144531 -14.191406 1.375 -14.421875 C 1.84375 -14.890625 2.507812 -15.125 3.375 -15.125 L 4.375 -15.125 C 4.75 -15.125 5.066406 -15.101562 5.328125 -15.0625 C 5.597656 -15.03125 5.832031 -14.96875 6.03125 -14.875 C 6.238281 -14.789062 6.429688 -14.671875 6.609375 -14.515625 C 6.785156 -14.359375 6.972656 -14.148438 7.171875 -13.890625 L 7.515625 -13.453125 L 7.515625 -15.046875 L 12.1875 -15.046875 L 12.1875 0 L 7.515625 0 L 7.515625 -1.640625 C 7.316406 -1.273438 7.140625 -0.976562 6.984375 -0.75 C 6.828125 -0.519531 6.65625 -0.347656 6.46875 -0.234375 C 6.289062 -0.117188 6.082031 -0.0390625 5.84375 0 C 5.613281 0.0390625 5.3125 0.0625 4.9375 0.0625 Z M 7.515625 -9.921875 C 7.515625 -11.054688 7.164062 -11.625 6.46875 -11.625 C 5.78125 -11.625 5.4375 -11.054688 5.4375 -9.921875 L 5.4375 -5.28125 C 5.4375 -4.144531 5.785156 -3.578125 6.484375 -3.578125 C 7.171875 -3.578125 7.515625 -4.144531 7.515625 -5.28125 Z M 7.515625 -9.921875 "/></g></g></g><g fill="#ffffff" fill-opacity="1"><g transform="translate(310.254071, 87.879733)"><g><path d="M 8.109375 0.0625 C 7.734375 0.0625 7.421875 0.0390625 7.171875 0 C 6.929688 -0.0390625 6.722656 -0.117188 6.546875 -0.234375 C 6.367188 -0.347656 6.203125 -0.519531 6.046875 -0.75 C 5.890625 -0.976562 5.710938 -1.273438 5.515625 -1.640625 L 5.515625 0 L 0.859375 0 L 0.859375 -19.59375 L 5.515625 -19.59375 L 5.515625 -13.484375 L 5.875 -13.921875 C 6.070312 -14.179688 6.253906 -14.390625 6.421875 -14.546875 C 6.585938 -14.703125 6.769531 -14.820312 6.96875 -14.90625 C 7.175781 -15 7.410156 -15.054688 7.671875 -15.078125 C 7.941406 -15.109375 8.273438 -15.125 8.671875 -15.125 L 9.671875 -15.125 C 10.679688 -15.125 11.414062 -14.8125 11.875 -14.1875 C 12.03125 -13.96875 12.132812 -13.679688 12.1875 -13.328125 C 12.25 -12.984375 12.28125 -12.503906 12.28125 -11.890625 L 12.28125 -3.84375 C 12.28125 -3.15625 12.226562 -2.53125 12.125 -1.96875 C 12.03125 -1.414062 11.894531 -1.003906 11.71875 -0.734375 C 11.5 -0.421875 11.207031 -0.207031 10.84375 -0.09375 C 10.488281 0.0078125 9.890625 0.0625 9.046875 0.0625 Z M 7.609375 -9.921875 C 7.609375 -11.054688 7.253906 -11.625 6.546875 -11.625 C 5.859375 -11.625 5.515625 -11.054688 5.515625 -9.921875 L 5.515625 -5.28125 C 5.515625 -4.144531 5.867188 -3.578125 6.578125 -3.578125 C 7.265625 -3.578125 7.609375 -4.144531 7.609375 -5.28125 Z M 7.609375 -9.921875 "/></g></g></g><g fill="#ffffff" fill-opacity="1"><g transform="translate(323.294663, 87.879733)"><g/></g></g><g fill="#ffffff" fill-opacity="1"><g transform="translate(330.255517, 87.879733)"><g><path d="M 0.765625 -5.171875 C 0.765625 -5.640625 0.769531 -6.03125 0.78125 -6.34375 C 0.789062 -6.65625 0.804688 -6.921875 0.828125 -7.140625 C 0.859375 -7.359375 0.910156 -7.546875 0.984375 -7.703125 C 1.054688 -7.859375 1.140625 -8.023438 1.234375 -8.203125 C 1.429688 -8.523438 1.675781 -8.804688 1.96875 -9.046875 C 2.257812 -9.285156 2.707031 -9.539062 3.3125 -9.8125 C 2.6875 -10.082031 2.207031 -10.359375 1.875 -10.640625 C 1.539062 -10.929688 1.269531 -11.300781 1.0625 -11.75 C 0.9375 -12.019531 0.851562 -12.304688 0.8125 -12.609375 C 0.78125 -12.921875 0.765625 -13.367188 0.765625 -13.953125 L 0.765625 -19.59375 L 6.015625 -19.59375 L 6.015625 -14.390625 C 6.015625 -13.984375 6.03125 -13.640625 6.0625 -13.359375 C 6.09375 -13.085938 6.144531 -12.835938 6.21875 -12.609375 C 6.300781 -12.390625 6.410156 -12.191406 6.546875 -12.015625 C 6.679688 -11.835938 6.859375 -11.648438 7.078125 -11.453125 C 7.296875 -11.648438 7.472656 -11.835938 7.609375 -12.015625 C 7.742188 -12.191406 7.847656 -12.390625 7.921875 -12.609375 C 8.003906 -12.835938 8.0625 -13.085938 8.09375 -13.359375 C 8.125 -13.640625 8.140625 -13.984375 8.140625 -14.390625 L 8.140625 -19.59375 L 13.390625 -19.59375 L 13.390625 -13.953125 C 13.390625 -13.242188 13.351562 -12.710938 13.28125 -12.359375 C 13.21875 -12.015625 13.078125 -11.675781 12.859375 -11.34375 C 12.648438 -10.988281 12.398438 -10.703125 12.109375 -10.484375 C 11.828125 -10.265625 11.40625 -10.039062 10.84375 -9.8125 C 11.53125 -9.5 12.035156 -9.195312 12.359375 -8.90625 C 12.691406 -8.625 12.9375 -8.257812 13.09375 -7.8125 C 13.15625 -7.65625 13.207031 -7.507812 13.25 -7.375 C 13.289062 -7.238281 13.316406 -7.070312 13.328125 -6.875 C 13.347656 -6.675781 13.363281 -6.4375 13.375 -6.15625 C 13.382812 -5.882812 13.390625 -5.554688 13.390625 -5.171875 L 13.390625 0 L 8.140625 0 L 8.140625 -5.28125 C 8.140625 -5.945312 8.0625 -6.476562 7.90625 -6.875 C 7.75 -7.28125 7.472656 -7.648438 7.078125 -7.984375 C 6.679688 -7.648438 6.40625 -7.28125 6.25 -6.875 C 6.09375 -6.476562 6.015625 -5.945312 6.015625 -5.28125 L 6.015625 0 L 0.765625 0 Z M 0.765625 -5.171875 "/></g></g></g><g fill="#ea83ff" fill-opacity="1"><g transform="translate(-1.671295, 90.046133)"><g><path d="M 40.765625 1.171875 C 27.441406 1.171875 17.632812 -1.570312 11.34375 -7.0625 C 5.78125 -11.914062 3 -18.523438 3 -26.890625 C 3 -35.285156 5.78125 -41.910156 11.34375 -46.765625 C 17.632812 -52.253906 27.441406 -55 40.765625 -55 C 48.347656 -55 54.65625 -54.144531 59.6875 -52.4375 C 64.726562 -50.738281 68.679688 -48.414062 71.546875 -45.46875 C 74.410156 -42.53125 76.367188 -39.144531 77.421875 -35.3125 L 53.234375 -35.3125 C 50.703125 -38.789062 46.546875 -40.53125 40.765625 -40.53125 C 35.304688 -40.53125 31.285156 -38.96875 28.703125 -35.84375 C 26.648438 -33.3125 25.625 -30.328125 25.625 -26.890625 C 25.625 -23.460938 26.648438 -20.5 28.703125 -18 C 31.285156 -14.863281 35.304688 -13.296875 40.765625 -13.296875 C 45.171875 -13.296875 48.476562 -13.675781 50.6875 -14.4375 C 52.90625 -15.207031 54.53125 -16.207031 55.5625 -17.4375 L 46.734375 -17.4375 L 46.734375 -26.890625 L 77.421875 -26.890625 L 77.421875 0.03125 L 68.03125 0.03125 L 66.125 -5.1875 C 60.132812 -0.945312 51.679688 1.171875 40.765625 1.171875 Z M 40.765625 1.171875 "/></g></g></g><g fill="#ea83ff" fill-opacity="1"><g transform="translate(75.264623, 90.046133)"><g><path d="M 68.9375 0 L 6.015625 0 L 6.015625 -53.90625 L 28.625 -53.90625 L 28.625 -13.34375 L 68.9375 -13.34375 Z M 68.9375 0 "/></g></g></g><g fill="#ea83ff" fill-opacity="1"><g transform="translate(140.704452, 90.046133)"><g><path d="M 77.6875 0 L 54.765625 0 L 39.140625 -16.53125 L 23.484375 0 L 0.5625 0 L 28.625 -27.578125 L 0.5625 -53.875 L 23.484375 -53.875 L 39.140625 -38.4375 L 54.765625 -53.875 L 77.6875 -53.875 L 49.625 -27.578125 Z M 77.6875 0 "/></g></g></g></svg>