<svg xmlns="http://www.w3.org/2000/svg" xmlns:xlink="http://www.w3.org/1999/xlink" width="500" zoomAndPan="magnify" viewBox="0 0 375 74.999997" height="100" preserveAspectRatio="xMidYMid meet" version="1.0"><defs><g/><clipPath id="08676efe66"><path d="M 205 12 L 237 12 L 237 42.167969 L 205 42.167969 Z M 205 12 " clip-rule="nonzero"/></clipPath><clipPath id="be17e9028c"><path d="M 221 0.898438 L 229 0.898438 L 229 8 L 221 8 Z M 221 0.898438 " clip-rule="nonzero"/></clipPath></defs><path fill="#ffffff" d="M 215.164062 30.78125 L 209.648438 37.679688 C 209.230469 38.203125 209.601562 38.972656 210.269531 38.972656 L 231.503906 38.972656 C 232.160156 38.972656 232.53125 38.222656 232.136719 37.699219 L 228.652344 33.082031 C 228.429688 32.789062 228.035156 32.683594 227.699219 32.832031 L 226.914062 33.179688 C 225.113281 33.980469 223.039062 33.890625 221.3125 32.9375 L 216.8125 30.457031 C 216.257812 30.148438 215.5625 30.285156 215.164062 30.78125 " fill-opacity="1" fill-rule="nonzero"/><g clip-path="url(#08676efe66)"><path fill="#ffffff" d="M 235.066406 39.894531 C 234.828125 40.367188 234.367188 40.644531 233.839844 40.644531 L 208.171875 40.644531 C 207.644531 40.644531 207.1875 40.367188 206.945312 39.894531 C 206.707031 39.421875 206.746094 38.886719 207.046875 38.476562 L 216.335938 26.25 L 219.804688 26.25 C 220.257812 26.25 220.625 25.882812 220.625 25.433594 C 220.625 24.980469 220.257812 24.617188 219.804688 24.617188 L 217.042969 24.617188 C 217.058594 24.484375 217.070312 24.347656 217.070312 24.214844 L 217.070312 23.371094 L 219.804688 23.371094 C 220.257812 23.371094 220.625 23.003906 220.625 22.554688 C 220.625 22.101562 220.257812 21.734375 219.804688 21.734375 L 217.070312 21.734375 L 217.070312 20.488281 L 219.804688 20.488281 C 220.257812 20.488281 220.625 20.125 220.625 19.671875 C 220.625 19.21875 220.257812 18.855469 219.804688 18.855469 L 217.070312 18.855469 L 217.070312 16.644531 C 217.070312 16.191406 216.703125 15.828125 216.253906 15.828125 L 213.773438 15.828125 L 213.773438 14.078125 L 228.242188 14.078125 L 228.242188 15.828125 L 225.757812 15.828125 C 225.308594 15.828125 224.941406 16.191406 224.941406 16.644531 L 224.941406 24.214844 C 224.941406 24.90625 225.171875 25.585938 225.589844 26.136719 L 234.960938 38.46875 C 235.265625 38.894531 235.304688 39.425781 235.066406 39.894531 Z M 236.28125 37.5 C 236.277344 37.496094 236.273438 37.492188 236.269531 37.488281 L 226.890625 25.148438 C 226.6875 24.882812 226.578125 24.550781 226.578125 24.214844 L 226.578125 17.460938 L 228.414062 17.460938 C 229.21875 17.460938 229.875 16.808594 229.875 16 L 229.875 13.902344 C 229.875 13.097656 229.21875 12.445312 228.414062 12.445312 L 213.597656 12.445312 C 212.792969 12.445312 212.136719 13.097656 212.136719 13.902344 L 212.136719 16 C 212.136719 16.808594 212.792969 17.460938 213.597656 17.460938 L 215.433594 17.460938 L 215.433594 24.214844 C 215.433594 24.550781 215.324219 24.882812 215.121094 25.148438 L 205.730469 37.5 C 205.066406 38.421875 204.972656 39.625 205.488281 40.636719 C 206.007812 41.652344 207.035156 42.28125 208.171875 42.28125 L 233.839844 42.28125 C 234.976562 42.28125 236.007812 41.652344 236.523438 40.636719 C 237.042969 39.625 236.945312 38.421875 236.28125 37.5 " fill-opacity="1" fill-rule="nonzero"/></g><path fill="#ffffff" d="M 217.550781 8.914062 C 217.550781 7.878906 218.390625 7.039062 219.425781 7.039062 C 220.460938 7.039062 221.300781 7.878906 221.300781 8.914062 C 221.300781 9.949219 220.460938 10.789062 219.425781 10.789062 C 218.390625 10.789062 217.550781 9.949219 217.550781 8.914062 " fill-opacity="1" fill-rule="nonzero"/><g clip-path="url(#be17e9028c)"><path fill="#ffffff" d="M 221.300781 4.328125 C 221.300781 2.433594 222.832031 0.902344 224.726562 0.902344 C 226.621094 0.902344 228.15625 2.433594 228.15625 4.328125 C 228.15625 6.222656 226.621094 7.753906 224.726562 7.753906 C 222.832031 7.753906 221.300781 6.222656 221.300781 4.328125 " fill-opacity="1" fill-rule="nonzero"/></g><g fill="#ffffff" fill-opacity="1"><g transform="translate(180.92063, 63.649642)"><g><path d="M 4.375 0 C 4 0 3.679688 0 3.421875 0 C 3.171875 0 2.957031 -0.00390625 2.78125 -0.015625 C 2.601562 -0.0351562 2.453125 -0.0507812 2.328125 -0.0625 C 2.210938 -0.0703125 2.109375 -0.09375 2.015625 -0.125 C 1.546875 -0.238281 1.207031 -0.425781 1 -0.6875 C 0.800781 -0.945312 0.671875 -1.375 0.609375 -1.96875 C 0.609375 -2.019531 0.601562 -2.078125 0.59375 -2.140625 C 0.59375 -2.210938 0.59375 -2.335938 0.59375 -2.515625 C 0.59375 -2.703125 0.585938 -2.976562 0.578125 -3.34375 C 0.578125 -3.707031 0.566406 -4.226562 0.546875 -4.90625 L 0.546875 -9.140625 C 0.546875 -10.398438 0.601562 -11.363281 0.71875 -12.03125 C 0.832031 -12.707031 1.023438 -13.1875 1.296875 -13.46875 C 1.421875 -13.59375 1.554688 -13.695312 1.703125 -13.78125 C 1.847656 -13.863281 2.035156 -13.929688 2.265625 -13.984375 C 2.503906 -14.035156 2.789062 -14.070312 3.125 -14.09375 C 3.46875 -14.113281 3.882812 -14.125 4.375 -14.125 L 9.703125 -14.125 L 9.703125 -10.65625 C 9.390625 -10.757812 8.972656 -10.847656 8.453125 -10.921875 C 7.941406 -11.003906 7.4375 -11.046875 6.9375 -11.046875 L 5.609375 -11.046875 C 5.316406 -11.046875 5.082031 -11.035156 4.90625 -11.015625 C 4.738281 -10.992188 4.613281 -10.9375 4.53125 -10.84375 C 4.445312 -10.757812 4.394531 -10.628906 4.375 -10.453125 C 4.351562 -10.285156 4.34375 -10.054688 4.34375 -9.765625 L 4.34375 -4.75 C 4.34375 -4.363281 4.351562 -4.0625 4.375 -3.84375 C 4.394531 -3.625 4.4375 -3.453125 4.5 -3.328125 C 4.5625 -3.210938 4.65625 -3.140625 4.78125 -3.109375 C 4.90625 -3.078125 5.078125 -3.0625 5.296875 -3.0625 L 5.90625 -3.0625 L 5.90625 -6.484375 C 5.90625 -6.742188 5.882812 -7 5.84375 -7.25 C 5.800781 -7.5 5.722656 -7.769531 5.609375 -8.0625 L 9.703125 -8.0625 L 9.703125 -3.140625 C 9.703125 -2.703125 9.691406 -2.335938 9.671875 -2.046875 C 9.660156 -1.753906 9.632812 -1.507812 9.59375 -1.3125 C 9.550781 -1.125 9.488281 -0.96875 9.40625 -0.84375 C 9.332031 -0.71875 9.234375 -0.609375 9.109375 -0.515625 C 8.972656 -0.398438 8.832031 -0.304688 8.6875 -0.234375 C 8.550781 -0.171875 8.367188 -0.125 8.140625 -0.09375 C 7.921875 -0.0625 7.640625 -0.0351562 7.296875 -0.015625 C 6.953125 -0.00390625 6.503906 0 5.953125 0 Z M 4.375 0 "/></g></g></g><g fill="#ffffff" fill-opacity="1"><g transform="translate(191.171142, 63.649642)"><g><path d="M 2.875 0.046875 C 2.269531 0.046875 1.835938 0.0078125 1.578125 -0.0625 C 1.316406 -0.144531 1.109375 -0.300781 0.953125 -0.53125 C 0.828125 -0.726562 0.726562 -1.023438 0.65625 -1.421875 C 0.582031 -1.816406 0.546875 -2.269531 0.546875 -2.78125 L 0.546875 -8.546875 C 0.546875 -9.078125 0.578125 -9.472656 0.640625 -9.734375 C 0.703125 -10.003906 0.820312 -10.222656 1 -10.390625 C 1.332031 -10.734375 1.8125 -10.90625 2.4375 -10.90625 L 3.15625 -10.90625 C 3.425781 -10.90625 3.65625 -10.890625 3.84375 -10.859375 C 4.03125 -10.828125 4.195312 -10.78125 4.34375 -10.71875 C 4.5 -10.65625 4.640625 -10.566406 4.765625 -10.453125 C 4.890625 -10.347656 5.023438 -10.203125 5.171875 -10.015625 L 5.421875 -9.703125 L 5.421875 -10.84375 L 8.78125 -10.84375 L 8.78125 0 L 5.421875 0 L 5.421875 -1.1875 C 5.273438 -0.914062 5.144531 -0.695312 5.03125 -0.53125 C 4.925781 -0.375 4.804688 -0.253906 4.671875 -0.171875 C 4.535156 -0.0859375 4.378906 -0.03125 4.203125 0 C 4.035156 0.03125 3.820312 0.046875 3.5625 0.046875 Z M 5.421875 -7.15625 C 5.421875 -7.976562 5.164062 -8.390625 4.65625 -8.390625 C 4.164062 -8.390625 3.921875 -7.976562 3.921875 -7.15625 L 3.921875 -3.8125 C 3.921875 -2.988281 4.171875 -2.578125 4.671875 -2.578125 C 5.171875 -2.578125 5.421875 -2.988281 5.421875 -3.8125 Z M 5.421875 -7.15625 "/></g></g></g><g fill="#ffffff" fill-opacity="1"><g transform="translate(200.574503, 63.649642)"><g><path d="M 0.609375 -10.84375 L 3.984375 -10.84375 L 3.984375 -9.671875 C 4.265625 -10.148438 4.570312 -10.46875 4.90625 -10.625 C 5.25 -10.789062 5.753906 -10.875 6.421875 -10.875 C 6.816406 -10.875 7.15625 -10.851562 7.4375 -10.8125 C 7.726562 -10.769531 7.96875 -10.695312 8.15625 -10.59375 C 8.351562 -10.488281 8.507812 -10.347656 8.625 -10.171875 C 8.75 -10.003906 8.84375 -9.796875 8.90625 -9.546875 C 9.082031 -9.828125 9.238281 -10.054688 9.375 -10.234375 C 9.519531 -10.410156 9.675781 -10.546875 9.84375 -10.640625 C 10.007812 -10.734375 10.203125 -10.796875 10.421875 -10.828125 C 10.640625 -10.859375 10.914062 -10.875 11.25 -10.875 C 11.769531 -10.875 12.191406 -10.84375 12.515625 -10.78125 C 12.847656 -10.71875 13.109375 -10.601562 13.296875 -10.4375 C 13.492188 -10.269531 13.628906 -10.035156 13.703125 -9.734375 C 13.785156 -9.441406 13.828125 -9.0625 13.828125 -8.59375 L 13.828125 0 L 10.453125 0 L 10.453125 -7.21875 C 10.453125 -8 10.1875 -8.390625 9.65625 -8.390625 C 9.15625 -8.390625 8.90625 -7.984375 8.90625 -7.171875 L 8.90625 0 L 5.546875 0 L 5.546875 -7.15625 C 5.546875 -7.976562 5.28125 -8.390625 4.75 -8.390625 C 4.238281 -8.390625 3.984375 -7.960938 3.984375 -7.109375 L 3.984375 0 L 0.609375 0 Z M 0.609375 -10.84375 "/></g></g></g><g fill="#ffffff" fill-opacity="1"><g transform="translate(215.018408, 63.649642)"><g><path d="M 3.140625 0 C 2.503906 0 2.03125 -0.03125 1.71875 -0.09375 C 1.414062 -0.15625 1.175781 -0.28125 1 -0.46875 C 0.894531 -0.5625 0.8125 -0.660156 0.75 -0.765625 C 0.695312 -0.878906 0.65625 -1.019531 0.625 -1.1875 C 0.59375 -1.351562 0.570312 -1.570312 0.5625 -1.84375 C 0.550781 -2.125 0.546875 -2.484375 0.546875 -2.921875 L 0.546875 -8.65625 C 0.546875 -9.445312 0.71875 -10.015625 1.0625 -10.359375 C 1.226562 -10.523438 1.488281 -10.644531 1.84375 -10.71875 C 2.195312 -10.800781 2.691406 -10.84375 3.328125 -10.84375 L 5.96875 -10.84375 C 7.101562 -10.84375 7.875 -10.679688 8.28125 -10.359375 C 8.394531 -10.265625 8.484375 -10.175781 8.546875 -10.09375 C 8.609375 -10.007812 8.65625 -9.898438 8.6875 -9.765625 C 8.726562 -9.628906 8.753906 -9.460938 8.765625 -9.265625 C 8.773438 -9.078125 8.78125 -8.828125 8.78125 -8.515625 L 8.78125 -4.0625 L 3.921875 -4.0625 L 3.921875 -3.5 C 3.921875 -3.125 4 -2.875 4.15625 -2.75 C 4.320312 -2.625 4.640625 -2.5625 5.109375 -2.5625 L 8.78125 -2.5625 L 8.78125 0 Z M 5.421875 -6.125 L 5.421875 -7.09375 C 5.421875 -7.457031 5.351562 -7.742188 5.21875 -7.953125 C 5.082031 -8.171875 4.894531 -8.28125 4.65625 -8.28125 C 4.414062 -8.28125 4.234375 -8.171875 4.109375 -7.953125 C 3.984375 -7.742188 3.921875 -7.457031 3.921875 -7.09375 L 3.921875 -6.125 Z M 5.421875 -6.125 "/></g></g></g><g fill="#ffffff" fill-opacity="1"><g transform="translate(224.2947, 63.649642)"><g><path d="M 0.671875 -10.546875 C 0.671875 -11.390625 0.65625 -12.082031 0.625 -12.625 C 0.59375 -13.164062 0.539062 -13.664062 0.46875 -14.125 L 4.8125 -14.125 C 4.695312 -13.5625 4.609375 -13 4.546875 -12.4375 C 4.492188 -11.882812 4.46875 -11.289062 4.46875 -10.65625 L 4.46875 -3.0625 L 7.015625 -3.21875 L 6.328125 0 L 0.671875 0 Z M 0.671875 -10.546875 "/></g></g></g><g fill="#ffffff" fill-opacity="1"><g transform="translate(231.177795, 63.649642)"><g><path d="M 2.875 0.046875 C 2.269531 0.046875 1.835938 0.0078125 1.578125 -0.0625 C 1.316406 -0.144531 1.109375 -0.300781 0.953125 -0.53125 C 0.828125 -0.726562 0.726562 -1.023438 0.65625 -1.421875 C 0.582031 -1.816406 0.546875 -2.269531 0.546875 -2.78125 L 0.546875 -8.546875 C 0.546875 -9.078125 0.578125 -9.472656 0.640625 -9.734375 C 0.703125 -10.003906 0.820312 -10.222656 1 -10.390625 C 1.332031 -10.734375 1.8125 -10.90625 2.4375 -10.90625 L 3.15625 -10.90625 C 3.425781 -10.90625 3.65625 -10.890625 3.84375 -10.859375 C 4.03125 -10.828125 4.195312 -10.78125 4.34375 -10.71875 C 4.5 -10.65625 4.640625 -10.566406 4.765625 -10.453125 C 4.890625 -10.347656 5.023438 -10.203125 5.171875 -10.015625 L 5.421875 -9.703125 L 5.421875 -10.84375 L 8.78125 -10.84375 L 8.78125 0 L 5.421875 0 L 5.421875 -1.1875 C 5.273438 -0.914062 5.144531 -0.695312 5.03125 -0.53125 C 4.925781 -0.375 4.804688 -0.253906 4.671875 -0.171875 C 4.535156 -0.0859375 4.378906 -0.03125 4.203125 0 C 4.035156 0.03125 3.820312 0.046875 3.5625 0.046875 Z M 5.421875 -7.15625 C 5.421875 -7.976562 5.164062 -8.390625 4.65625 -8.390625 C 4.164062 -8.390625 3.921875 -7.976562 3.921875 -7.15625 L 3.921875 -3.8125 C 3.921875 -2.988281 4.171875 -2.578125 4.671875 -2.578125 C 5.171875 -2.578125 5.421875 -2.988281 5.421875 -3.8125 Z M 5.421875 -7.15625 "/></g></g></g><g fill="#ffffff" fill-opacity="1"><g transform="translate(240.581156, 63.649642)"><g><path d="M 5.84375 0.046875 C 5.570312 0.046875 5.347656 0.03125 5.171875 0 C 4.992188 -0.03125 4.84375 -0.0859375 4.71875 -0.171875 C 4.59375 -0.253906 4.472656 -0.375 4.359375 -0.53125 C 4.242188 -0.695312 4.117188 -0.914062 3.984375 -1.1875 L 3.984375 0 L 0.609375 0 L 0.609375 -14.125 L 3.984375 -14.125 L 3.984375 -9.71875 L 4.234375 -10.03125 C 4.378906 -10.21875 4.507812 -10.367188 4.625 -10.484375 C 4.75 -10.597656 4.882812 -10.6875 5.03125 -10.75 C 5.175781 -10.8125 5.34375 -10.851562 5.53125 -10.875 C 5.726562 -10.894531 5.96875 -10.90625 6.25 -10.90625 L 6.96875 -10.90625 C 7.695312 -10.90625 8.222656 -10.675781 8.546875 -10.21875 C 8.660156 -10.070312 8.738281 -9.867188 8.78125 -9.609375 C 8.820312 -9.359375 8.84375 -9.015625 8.84375 -8.578125 L 8.84375 -2.78125 C 8.84375 -2.28125 8.804688 -1.828125 8.734375 -1.421875 C 8.671875 -1.023438 8.578125 -0.726562 8.453125 -0.53125 C 8.296875 -0.300781 8.085938 -0.144531 7.828125 -0.0625 C 7.566406 0.0078125 7.128906 0.046875 6.515625 0.046875 Z M 5.484375 -7.15625 C 5.484375 -7.976562 5.226562 -8.390625 4.71875 -8.390625 C 4.226562 -8.390625 3.984375 -7.976562 3.984375 -7.15625 L 3.984375 -3.8125 C 3.984375 -2.988281 4.238281 -2.578125 4.75 -2.578125 C 5.238281 -2.578125 5.484375 -2.988281 5.484375 -3.8125 Z M 5.484375 -7.15625 "/></g></g></g><g fill="#ffffff" fill-opacity="1"><g transform="translate(249.984517, 63.649642)"><g/></g></g><g fill="#ffffff" fill-opacity="1"><g transform="translate(255.003876, 63.649642)"><g><path d="M 0.546875 -3.71875 C 0.546875 -4.0625 0.550781 -4.34375 0.5625 -4.5625 C 0.570312 -4.789062 0.585938 -4.984375 0.609375 -5.140625 C 0.628906 -5.296875 0.660156 -5.429688 0.703125 -5.546875 C 0.753906 -5.660156 0.816406 -5.78125 0.890625 -5.90625 C 1.023438 -6.144531 1.195312 -6.347656 1.40625 -6.515625 C 1.625 -6.691406 1.953125 -6.878906 2.390625 -7.078125 C 1.941406 -7.273438 1.597656 -7.472656 1.359375 -7.671875 C 1.117188 -7.878906 0.921875 -8.144531 0.765625 -8.46875 C 0.679688 -8.664062 0.625 -8.875 0.59375 -9.09375 C 0.5625 -9.3125 0.546875 -9.632812 0.546875 -10.0625 L 0.546875 -14.125 L 4.34375 -14.125 L 4.34375 -10.375 C 4.34375 -10.070312 4.351562 -9.820312 4.375 -9.625 C 4.394531 -9.4375 4.429688 -9.257812 4.484375 -9.09375 C 4.546875 -8.925781 4.625 -8.78125 4.71875 -8.65625 C 4.820312 -8.53125 4.953125 -8.394531 5.109375 -8.25 C 5.253906 -8.394531 5.375 -8.53125 5.46875 -8.65625 C 5.570312 -8.78125 5.648438 -8.925781 5.703125 -9.09375 C 5.765625 -9.257812 5.804688 -9.4375 5.828125 -9.625 C 5.847656 -9.820312 5.859375 -10.070312 5.859375 -10.375 L 5.859375 -14.125 L 9.65625 -14.125 L 9.65625 -10.0625 C 9.65625 -9.550781 9.628906 -9.164062 9.578125 -8.90625 C 9.523438 -8.65625 9.421875 -8.410156 9.265625 -8.171875 C 9.117188 -7.921875 8.941406 -7.71875 8.734375 -7.5625 C 8.523438 -7.40625 8.21875 -7.242188 7.8125 -7.078125 C 8.300781 -6.847656 8.664062 -6.628906 8.90625 -6.421875 C 9.144531 -6.222656 9.320312 -5.957031 9.4375 -5.625 C 9.476562 -5.519531 9.515625 -5.414062 9.546875 -5.3125 C 9.578125 -5.21875 9.597656 -5.097656 9.609375 -4.953125 C 9.628906 -4.816406 9.640625 -4.648438 9.640625 -4.453125 C 9.648438 -4.253906 9.65625 -4.007812 9.65625 -3.71875 L 9.65625 0 L 5.859375 0 L 5.859375 -3.8125 C 5.859375 -4.289062 5.800781 -4.675781 5.6875 -4.96875 C 5.582031 -5.257812 5.390625 -5.523438 5.109375 -5.765625 C 4.816406 -5.523438 4.613281 -5.257812 4.5 -4.96875 C 4.394531 -4.675781 4.34375 -4.289062 4.34375 -3.8125 L 4.34375 0 L 0.546875 0 Z M 0.546875 -3.71875 "/></g></g></g><g fill="#a99bff" fill-opacity="1"><g transform="translate(16.508332, 65.394595)"><g><path d="M 29.421875 0.84375 C 19.804688 0.84375 12.726562 -1.132812 8.1875 -5.09375 C 4.175781 -8.601562 2.171875 -13.378906 2.171875 -19.421875 C 2.171875 -25.472656 4.175781 -30.253906 8.1875 -33.765625 C 12.726562 -37.722656 19.804688 -39.703125 29.421875 -39.703125 C 34.898438 -39.703125 39.453125 -39.085938 43.078125 -37.859375 C 46.710938 -36.628906 49.566406 -34.953125 51.640625 -32.828125 C 53.710938 -30.703125 55.128906 -28.253906 55.890625 -25.484375 L 38.421875 -25.484375 C 36.597656 -27.992188 33.597656 -29.25 29.421875 -29.25 C 25.484375 -29.25 22.582031 -28.125 20.71875 -25.875 C 19.238281 -24.039062 18.5 -21.890625 18.5 -19.421875 C 18.5 -16.941406 19.238281 -14.796875 20.71875 -12.984375 C 22.582031 -10.722656 25.484375 -9.59375 29.421875 -9.59375 C 32.597656 -9.59375 34.984375 -9.867188 36.578125 -10.421875 C 38.179688 -10.972656 39.359375 -11.691406 40.109375 -12.578125 L 33.734375 -12.578125 L 33.734375 -19.421875 L 55.890625 -19.421875 L 55.890625 0.03125 L 49.109375 0.03125 L 47.71875 -3.734375 C 43.394531 -0.679688 37.296875 0.84375 29.421875 0.84375 Z M 29.421875 0.84375 "/></g></g></g><g fill="#a99bff" fill-opacity="1"><g transform="translate(72.030958, 65.394595)"><g><path d="M 49.75 0 L 4.34375 0 L 4.34375 -38.90625 L 20.65625 -38.90625 L 20.65625 -9.625 L 49.75 -9.625 Z M 49.75 0 "/></g></g></g><g fill="#a99bff" fill-opacity="1"><g transform="translate(119.257198, 65.394595)"><g><path d="M 56.078125 0 L 39.53125 0 L 28.25 -11.9375 L 16.953125 0 L 0.40625 0 L 20.65625 -19.90625 L 0.40625 -38.875 L 16.953125 -38.875 L 28.25 -27.734375 L 39.53125 -38.875 L 56.078125 -38.875 L 35.8125 -19.90625 Z M 56.078125 0 "/></g></g></g></svg>